<svg xmlns="http://www.w3.org/2000/svg" height="24" viewBox="0 -960 960 960" width="24">
  <path fill="currentColor" d="M480-120q-42 0-71-29t-29-71v-200q0-42 29-71t71-29q42 0 71 29t29 71v200q0 42-29 71t-71 29Zm0-360q-95 0-173.5-46.5T196-658q-7-11-4.5-23t11.5-18q12-8 25-5.5t21 13.5q25 43 67.5 67t163.5 24q121 0 191-34t69-78q0-23-24-46t-68-42q-11-4-14.5-15t2.5-22q5-11 16.5-14.5t22.5 2.5q55 25 87.5 60.5T828-600q0 58-82 101.5T480-480Zm0-200q-67 0-127-28t-104-71q-11-10-10-24t14-21q10-7 23-5.5t21 11.5q33 29 81.5 43.5T480-760q53 0 101.5-14.5T663-818q8-7 20.5-7.5T706-818q13 7 13.5 21T710-773q-41 43-102 68t-128 25Z"/>
</svg>
